<?xml version="1.0" encoding="utf-8"?>
<!-- Generator: Adobe Illustrator 16.0.0, SVG Export Plug-In . SVG Version: 6.00 Build 0)  -->
<!DOCTYPE svg PUBLIC "-//W3C//DTD SVG 1.1//EN" "http://www.w3.org/Graphics/SVG/1.1/DTD/svg11.dtd">
<svg version="1.1" id="Layer_1" xmlns="http://www.w3.org/2000/svg" xmlns:xlink="http://www.w3.org/1999/xlink" x="0px" y="0px"
	 width="1136px" height="1136px" viewBox="0 80.5 1136 1136" enable-background="new 0 80.5 1136 1136" xml:space="preserve">
<g transform="translate(0.000000,1280.000000) scale(0.100000,-0.100000)">
	<path fill="#0D9488" d="M5481.64,11032.997c-250.996-25-547.998-115-755.996-227.998c-578.008-315-957.002-851.001-1060-1500
		c-22.002-135-24.004-437.001-5-574.999c85-602.999,435-1140,952.998-1462.002c192.002-118.994,432.002-213.994,667.998-262.998
		c154.004-32.998,475-45,637.002-25.996C6615.644,7064.003,7211.64,7490,7515.644,8121c270,559,270,1203.999,1.992,1763.999
		c-302.998,632.998-910.996,1065-1610.996,1145C5822.636,11038.998,5561.64,11041,5481.64,11032.997z"/>
	<path fill="#0D9488" d="M4197.636,6890c-147.998-57.002-165.996-69.004-300.996-205c-227.002-227.998-405-517.998-520-845
		c-80-230.996-144.004-567.002-147.998-784.003l-2.002-108.994l65-12.998c405.996-84.004,745.996-531.006,850-1117.002
		c24.004-136.006,42.002-374.004,30-397.002c-5-9.004-50-50.996-99.004-94.004c-81.992-70-90-78.994-80-97.998
		c18.008-32.998,6.006-130-20-165.996c-70.996-100-225-92.002-286.992,13.994c-61.006,104.004,5,243.008,120.996,255
		c17.002,2.002,50.996,0,77.002-3.994c45-7.998,48.994-6.006,122.002,45c86.992,60,82.998,45.996,65.996,232.998
		c-57.002,607.998-365,1085.996-765,1190c-70.996,17.998-217.998,20.996-295,4.004c-72.002-15-203.999-76.006-271.001-126.006
		c-128.999-95.996-268.999-275-348.999-445.996c-102.998-220-170-514.004-170-741.006v-65l73.999-50
		c40-27.998,76.001-47.998,78.999-45c11.001,12.002,107.002,5,134.004-10c70-35.996,110-117.998,92.998-190
		c-11.001-50.996-37.998-85.996-86.001-112.998c-137.998-78.994-296.997,62.002-238.999,212.998
		c8.999,25,16.001,46.006,13.999,47.002c-11.001,7.002-155,134.004-161.997,142.002c-11.001,14.004,0,217.998,18.999,340
		c86.001,557.002,375,1002.002,743.999,1144.004c43.999,16.992,83.999,30.996,88.999,30.996s12.002,42.002,16.001,92.998
		c47.998,667.001,239.004,1182.001,587.998,1590c27.002,31.006,46.006,57.002,42.002,57.002
		c-17.002,0-222.002-122.002-357.998-212.998C2298.642,5810,1659.638,4767.998,1481.641,3545
		c-31.001-217.002-32.998-205,61.001-337.002c117.998-163.994,248.999-315.996,401.001-463.994
		c413.999-401.006,912.998-695,1537.998-905c520-174.004,1059.004-271.006,1714.004-310c260.996-15,980-6.006,1205.996,15
		c575.996,55,1015.996,141.992,1465,290.996c657.001,217.998,1152.998,514.004,1585,945
		c167.998,167.002,262.998,279.004,384.004,449.004c77.998,110.996,76.992,103.994,40.996,333.994
		c-157.998,1010-659.004,1906.006-1440.996,2577.998c-222.002,190-526.005,398.008-754.003,514.004
		c-34.004,17.998-34.004,17.998-20-2.002c7.998-10.996,52.002-65,97.998-118.994c245-291.006,427.998-652.002,530-1044.004
		l27.002-104.004l72.998-16.992c217.998-49.004,387.002-199.003,470-417.001c24.004-61.006,26.006-80,26.006-207.002
		s-2.002-145.996-26.006-207.002c-62.002-163.994-170.996-288.994-310-357.002c-120.996-58.994-188.994-73.994-322.002-68.994
		c-125.996,5-203.994,27.002-297.998,85c-312.998,188.994-407.002,592.998-208.994,895c73.994,112.998,175,195.996,303.994,248.994
		c59.004,23.008,59.004,23.008,52.998,60c-20,125-105,360-200.996,554.004c-185.996,377.002-482.998,724.004-814.004,952.998
		L7008.642,6945l-16.006-24.004c-8.994-13.994-312.998-550.996-676.992-1195C5916.64,5017.998,5649.638,4555,5640.644,4555
		c-8.008,0-257.002,454.004-651.006,1190c-350.996,655-642.998,1190.996-650,1192.002
		C4332.636,6937.998,4268.642,6917.001,4197.636,6890z M6991.64,4010.996c5.996-11.992,10-97.998,10-210V3610h197.998
		c141.006,0,201.006-2.998,210-12.002c7.998-7.998,12.002-62.002,12.002-177.998c0-115.996-4.004-170-12.002-177.998
		c-8.994-9.004-68.994-12.002-210-12.002H7001.64v-187.002c0-103.994-2.998-197.998-5.996-210.996
		c-6.006-22.002-7.002-22.002-188.008-20L6626.64,2815l-5,205l-5,205l-200,2.998c-174.004,2.002-202.002,4.004-212.002,19.004
		c-15.996,20.996-17.998,315-2.998,343.994c10,18.008,22.998,19.004,215,19.004h205v202.998c0,112.002,2.998,207.002,7.002,210
		c2.998,4.004,83.994,7.002,178.994,7.002C6968.642,4030,6981.64,4029.004,6991.64,4010.996z"/>
	<path fill="#0D9488" d="M8130.644,5127.002c-165-56.006-267.002-187.998-277.002-357.002c-10-175,75-317.002,237.002-394.004
		c60-27.998,75-30.996,165.996-30.996c92.002,0,105.996,2.998,167.002,32.002c240.996,113.994,310.996,413.994,145,622.998
		C8465.644,5130,8288.642,5180.996,8130.644,5127.002z"/>
</g>
</svg>
