<?xml version="1.0" encoding="utf-8"?>
<!-- Generator: Adobe Illustrator 16.0.0, SVG Export Plug-In . SVG Version: 6.00 Build 0)  -->
<!DOCTYPE svg PUBLIC "-//W3C//DTD SVG 1.1//EN" "http://www.w3.org/Graphics/SVG/1.1/DTD/svg11.dtd">
<svg version="1.1" id="Layer_1" xmlns="http://www.w3.org/2000/svg" xmlns:xlink="http://www.w3.org/1999/xlink" x="0px" y="0px"
	 width="1280px" height="1216.5px" viewBox="0 -250.5 1280 1216.5" enable-background="new 0 -250.5 1280 1216.5"
	 xml:space="preserve">
<g transform="translate(0.000000,966.000000) scale(0.100000,-0.100000)">
	<path fill="#0D9488" d="M6265,12062.538c-10.996-2.471-45-11.133-75-18.56c-122.002-29.692-282.998-147.246-372.998-270.977
		c-97.998-134.868-141.006-272.212-140-451.631c0.996-251.172,103.994-488.745,252.998-586.489l60-39.604l0.996-120.015
		c0-65.581,4.004-280.874,8.008-478.853c5-196.738,6.992-360.068,6.992-361.304c-5-8.657-223.994,80.425-305,122.5
		c-131.992,70.522-220.996,138.579-301.992,230.142c-125,142.295-154.004,267.266-137.002,582.788
		c13.994,254.893-6.006,369.966-97.998,546.904c-89.004,173.223-253.008,352.642-468.008,511.016
		c-115,85.376-142.998,91.563-275.996,64.341c-137.998-28.462-230.996-69.287-450-199.209
		c-1147.998-683.013-2126-958.936-3300-928.003c-320,7.422-455-1.24-551.001-35.879C33.999,10597.528,0,10567.836,0,10522.05
		c0-21.03,73.999-112.598,133.999-165.801c83.003-71.763,150-112.593,385-228.906c212.002-105.171,387.002-173.223,511.001-197.969
		c108.999-22.275,107.002-19.805,77.002-59.395c-30-38.359-47.002-89.092-47.002-136.108c0-147.241,232.002-264.795,630-319.233
		c80-9.897,163.999-22.275,187.002-24.746l41.997-6.191l-16.001-40.83c-31.997-82.905,5-148.477,120-216.533
		c164.004-95.273,378.003-139.824,564.004-115.073c60,8.662,140,23.511,177.998,33.403c38.999,9.902,72.998,18.569,77.998,18.569
		c4.004,0,7.002-21.04,7.002-47.021c0-113.838,78.999-212.822,207.998-263.555c125-48.257,382.998-44.546,502.998,6.187
		c49.004,21.035,59.004,17.324,35-11.138c-21.992-28.452-30-72.998-15.996-103.931c37.002-86.616,330-162.095,634.004-162.095
		c60.996,0,120.996-3.711,132.998-7.422c20.996-7.427,20-9.897-17.002-40.83c-265-220.249-392.002-514.736-335.996-775.811
		c32.998-153.432,120-293.251,248.994-397.192c145-117.544,389.004-242.515,597.002-305.625
		c97.002-30.933,189.004-51.958,202.998-47.017c22.998,7.432-0.996-22.271-53.994-65.576
		c-95-76.714-217.002-243.755-262.002-356.353c-41.006-103.94-67.002-220.239-67.002-303.14
		c0-68.057,65.996-280.884,115.996-373.682c56.006-102.695,192.002-262.319,296.006-347.69
		c110.996-90.332,280.996-195.508,395.996-243.755l82.998-35.889l-65-47.017c-113.994-81.66-203.994-189.316-245.996-292.007
		c-35-84.155-60-221.489-60-330.376c0-215.293,85.996-413.281,240-553.086c25-22.275,147.002-108.887,270-191.787
		c124.004-82.91,244.004-164.56,267.998-181.885l42.998-30.947l-82.998-107.656c-95.996-124.961-190-308.076-212.998-415.723
		c-9.004-43.311-15-126.211-15-200.459c0-115.078,2.002-126.201,17.998-118.779c15,7.422,15,6.191,4.004-12.363
		c-19.004-28.467-7.002-101.465,27.998-170.752c30-60.635,187.998-242.529,245.996-285.84C6005,2229.424,6020,2214.57,6020,2209.619
		c0-4.941-20.996-33.408-45.996-63.105C5882.001,2033.926,5800,1849.551,5785,1717.168
		c-12.998-121.26,52.002-288.301,169.004-428.125l62.998-75.488l-41.006-98.984c-37.998-92.803-40.996-107.646-40-194.238
		c1.006-106.426,21.006-169.531,85-262.334c30-42.07,56.006-64.336,109.004-90.313l70-33.418v-75.488
		c0-163.311,12.998-315.518,25.996-321.699c8.008-3.711,60-9.902,117.002-14.844C6485,111.094,6490,114.805,6490,238.545v96.504
		l57.998-1.23c47.002,0,66.006,6.191,100,33.408c57.002,47.012,76.006,96.514,74.004,194.268
		c-2.002,85.371-26.006,165.791-61.006,204.16c-28.994,33.398-26.992,50.723,19.004,121.25c39.004,60.625,40,65.576,40,154.678
		c0,55.684-5.996,105.176-14.004,126.201c-18.994,43.311-80,112.598-140,155.908c-47.998,34.639-60.996,68.057-25.996,68.057
		c35.996,0,149.004,60.635,220.996,117.549c135,107.646,210,216.523,224.004,325.41c5.996,43.311,4.004,51.963-9.004,51.963
		c-21.992,0-20,21.045,3.008,28.457c25,7.441,45,96.514,36.992,160.85c-10.996,81.68-97.998,264.805-151.992,316.787l-26.006,24.746
		l46.006,80.42c183.994,319.219,175.996,718.887-20,972.539c-30,38.35-54.004,74.248-54.004,79.189
		c0,3.711,105,70.527,232.998,147.236c264.004,159.619,360,241.279,449.004,378.643c58.994,91.553,90.996,167.031,127.002,295.703
		c25,91.582,26.992,136.113,5,147.256c-11.006,4.941-12.002,9.902-4.004,16.084c17.998,13.604-24.004,168.271-77.998,282.109
		c-56.006,118.789-154.004,237.568-255,311.807c-42.998,30.938-77.002,58.164-77.002,61.87c0,3.711,45,23.516,97.998,45.786
		c299.004,118.774,590,366.245,717.002,608.774c89.004,169.507,122.002,341.494,95,498.643
		c-15.996,89.092-92.002,282.109-150.996,377.383c-22.002,37.124-65,90.322-94.004,118.779l-54.004,50.747L7940,6925.117
		c415,117.549,764.003,368.721,845,608.769c40,118.784,34.004,308.096-15,467.715c-42.002,139.819-172.002,341.504-270,420.693
		l-25,19.795l45,7.422c25,3.716,132.998,12.378,240,19.8c107.002,7.427,220.996,22.271,254.004,32.173
		c70,22.266,180,81.67,190.996,102.695c10.996,23.511,7.998,101.47-4.004,116.309c-5.996,7.427-10.996,21.04-10.996,28.462
		c0,11.133,17.998,7.432,57.998-12.373c150-72.998,309.004-81.66,432.002-25.981c207.998,94.038,300.996,196.733,270,295.723
		c-12.002,40.83-12.998,48.252-2.002,39.595c31.006-23.511,234.004-49.492,382.002-49.492
		c182.998,1.235,270.996,18.555,397.998,80.425c161.006,79.189,210,155.908,167.002,258.604l-15.996,37.114h72.998
		c97.998,0,325,29.697,422.002,55.684c161.992,42.07,280,118.784,333.994,216.533c31.006,55.679,27.002,157.144-5.996,201.685
		c-12.002,16.094-22.002,32.173-22.002,35.889c0,3.711,27.998,13.604,62.998,22.271c94.004,23.506,377.998,120.024,497.002,168.276
		c120,49.492,315,164.565,409.004,241.284c220.996,180.649,195,277.158-86.006,321.704c-68.994,11.138-150,11.138-330,0
		c-167.002-9.902-292.002-9.902-417.998-1.235c-422.998,29.692-877.998,85.376-1154.004,143.53
		c-380,79.189-857.998,274.688-1500.996,613.726c-90,48.252-169.004,87.847-175,90.317c-10.996,2.48-55.996,28.457-255,142.295
		c-157.002,90.322-192.998,106.411-294.004,136.108c-200.996,60.625-268.994,29.697-556.992-254.897
		c-64.004-63.101-141.006-148.477-172.002-191.782c-82.998-112.598-176.006-361.304-194.004-514.731
		c-2.998-28.457,2.002-121.26,12.002-206.631c10-90.332,15-185.605,12.002-225.2c-7.998-98.989-50-194.258-126.006-289.536
		c-133.994-167.041-313.994-273.457-585.996-345.215l-87.998-23.506l5.996,268.491c4.004,147.246,10,366.26,14.004,487.515
		l5.996,220.244l52.998,43.311c62.002,51.968,150,164.565,187.002,242.52c72.998,154.668,92.002,372.432,47.998,541.948
		c-65,252.417-242.998,446.685-475.996,520.923C6499.003,12057.592,6309.003,12076.151,6265,12062.538z M3809.003,11425.307
		c-8.008-35.879-14.004-47.012-17.002-32.173c-4.004,23.516,17.002,100.229,25,90.337
		C3819.003,11480.99,3815.996,11453.769,3809.003,11425.307z M5952.998,8468.075c40-7.432,74.004-16.084,76.006-17.324
		c3.994-6.182,28.994-1236.098,25-1242.28C6050,7202.275,5820,7228.266,5720,7244.35c-35.996,6.187-164.004,28.452-285,48.247
		c-120.996,21.04-287.002,47.031-370,56.924c-82.002,9.897-175,27.222-205,38.359c-140,49.492-280.996,180.654-330,306.855
		c-34.004,89.092-40,232.622-10.996,301.909c35,85.381,101.992,132.402,245,171.997c56.992,16.084,127.998,19.79,355.996,18.56
		c315.996-1.24,439.004,13.604,572.998,68.052c124.004,50.732,165,117.549,116.006,194.258l-20,32.173H5835
		C5860,8481.684,5914.003,8475.497,5952.998,8468.075z M6997.998,8423.529c-65-92.803,22.998-193.022,197.002-227.671
		c50-9.897,205.996-16.084,415-18.564c344.004-2.471,417.998-11.133,515.996-55.679c62.002-28.452,141.005-111.357,160-168.276
		c23.008-65.581,18.008-197.974-10-272.212c-45-118.784-163.994-233.862-308.994-298.198c-110-49.492-162.002-60.635-417.002-89.092
		c-117.998-13.608-267.002-33.408-330-42.065c-62.998-9.902-170.996-24.741-240-32.173c-69.004-7.427-165-18.56-214.004-24.746
		c-48.994-6.187-91.992-9.897-95-7.422c-10.996,8.662,26.006,1208.881,37.002,1222.49c11.006,13.608,137.002,30.933,231.006,33.403
		C7009.003,8444.569,7012.001,8443.324,6997.998,8423.529z M6810,6749.409c487.002-85.376,744.004-220.239,765.996-402.134
		c15-127.441-16.992-254.883-92.998-365.015c-52.002-75.469-212.002-219.009-320-288.296c-50-32.178-137.002-76.714-193.994-100.234
		c-103.008-42.061-339.004-110.112-348.008-98.979c-1.992,2.476,1.006,181.89,7.002,397.188
		c7.002,216.538,15,503.599,19.004,638.467c3.994,163.33,10,243.755,17.002,243.755C6670,6774.16,6735.996,6763.017,6810,6749.409z
		 M6072.998,6394.296c4.004-181.89,9.004-439.258,12.002-571.65c4.004-190.552,2.998-237.563-7.002-232.622
		c-7.002,2.476-203.994,134.873-437.998,293.257c-234.004,158.374-430.996,287.061-439.004,288.291
		c-17.998,1.25-8.994,113.843,14.004,175.703c55,142.3,237.998,263.555,494.004,326.665
		c127.998,32.168,332.998,63.101,351.992,54.434C6064.003,6727.148,6070,6576.186,6072.998,6394.296z M6114.003,4612.519
		c2.998-162.08,7.998-362.529,10-446.67l3.994-152.178l-27.002,21.025c-195,153.418-360.996,390.996-360.996,514.727
		c0,120.029,107.002,238.809,292.998,325.42c34.004,16.084,65,29.702,67.998,29.702
		C6105,4905.776,6110.996,4773.378,6114.003,4612.519z M6835,4686.777c119.004-79.189,214.004-148.486,212.998-153.438
		c-8.994-28.457-417.002-564.229-438.994-576.611l-27.002-13.594l3.994,211.582c3.008,117.549,10,268.506,17.002,336.553
		c7.002,68.057,11.006,171.992,9.004,232.617c-1.006,59.385,0,107.656,2.998,107.656S6717.001,4765.966,6835,4686.777z
		 M7020.996,4673.154c16.006-22.256,29.004-49.482,29.004-61.855s-9.004-4.951-24.004,23.496
		c-13.994,24.746-41.992,63.105-62.998,84.15l-37.998,39.58l32.998-22.266C6977.001,4723.886,7005,4695.429,7020.996,4673.154z
		 M7120,4522.207c0-6.191-5.996-12.373-12.998-12.373c-7.998,0-22.002-22.266-32.002-49.502c-30-82.9-42.998-82.9-27.002,0
		c14.004,69.287,17.002,74.248,42.998,74.248C7107.001,4534.58,7120,4529.619,7120,4522.207z M6570,2865.41
		c-12.998-143.525-25-169.512-15.996-33.408c2.998,53.213,5.996,128.682,6.992,167.041c1.006,65.576,2.002,66.816,10,25.986
		C6575.996,2999.043,6575,2934.697,6570,2865.41z"/>
</g>
</svg>
