<?xml version="1.0" encoding="utf-8"?>
<!-- Generator: Adobe Illustrator 16.0.0, SVG Export Plug-In . SVG Version: 6.00 Build 0)  -->
<!DOCTYPE svg PUBLIC "-//W3C//DTD SVG 1.1//EN" "http://www.w3.org/Graphics/SVG/1.1/DTD/svg11.dtd">
<svg version="1.1" id="Layer_1" xmlns="http://www.w3.org/2000/svg" xmlns:xlink="http://www.w3.org/1999/xlink" x="0px" y="0px"
	 width="781px" height="192px" viewBox="18.5 19.5 781 192" enable-background="new 18.5 19.5 781 192" xml:space="preserve">
<g>
	<rect x="234.137" y="75.795" fill="none" width="665.833" height="105.646"/>
	<g enable-background="new    ">
		<path fill="#010101" d="M265.777,122.277H248.98l-4.141,12.107h-10.703l19.688-55.078h7.891l19.688,55.078h-11.25L265.777,122.277
			z M251.715,113.684h11.719l-4.063-12.188l-1.641-8.594h-0.391l-1.641,8.672L251.715,113.684z"/>
		<path fill="#010101" d="M317.418,134.387c0,5.676-1.537,9.855-4.609,12.539c-3.072,2.682-7.371,4.023-12.891,4.023
			c-3.75,0-6.707-0.262-8.867-0.781c-2.162-0.521-3.789-1.068-4.883-1.641l2.109-8.047c1.197,0.469,2.59,0.938,4.18,1.404
			c1.588,0.471,3.555,0.703,5.898,0.703c3.541,0,5.95-0.771,7.227-2.305c1.275-1.537,1.914-3.688,1.914-6.445v-2.5h-0.313
			c-1.824,2.449-5.053,3.672-9.688,3.672c-5.053,0-8.816-1.563-11.289-4.688c-2.475-3.125-3.711-8.021-3.711-14.688
			c0-6.979,1.666-12.266,5-15.859c3.333-3.594,8.176-5.391,14.531-5.391c3.333,0,6.314,0.234,8.945,0.703
			c2.629,0.469,4.778,1.016,6.445,1.641v37.658L317.418,134.387L317.418,134.387z M300.23,126.887c1.979,0,3.502-0.441,4.57-1.328
			c1.067-0.885,1.889-2.213,2.461-3.982v-17.578c-1.615-0.676-3.621-1.016-6.016-1.016c-2.605,0-4.636,0.977-6.094,2.93
			c-1.459,1.953-2.188,5.066-2.188,9.336c0,3.803,0.625,6.691,1.875,8.672C296.09,125.898,297.887,126.887,300.23,126.887z"/>
		<path fill="#010101" d="M347.808,104.855c-1.613-0.572-3.072-0.859-4.375-0.859c-1.822,0-3.347,0.482-4.568,1.445
			c-1.227,0.965-2.045,2.201-2.461,3.711v25.234h-10.156V95.324h7.891l1.172,5.156h0.313c0.885-1.926,2.083-3.41,3.594-4.453
			c1.51-1.041,3.281-1.563,5.313-1.563c1.354,0,2.891,0.287,4.607,0.859L347.808,104.855z"/>
		<path fill="#010101" d="M353.433,97.59c2.083-0.938,4.559-1.68,7.424-2.227c2.862-0.547,5.857-0.82,8.982-0.82
			c2.708,0,4.974,0.326,6.797,0.977c1.822,0.652,3.27,1.576,4.336,2.773c1.067,1.199,1.822,2.631,2.268,4.297
			c0.44,1.668,0.664,3.543,0.664,5.625c0,2.293-0.078,4.598-0.234,6.914c-0.156,2.318-0.248,4.598-0.272,6.836
			c-0.026,2.24,0.038,4.414,0.194,6.523s0.547,4.102,1.172,5.977h-8.28l-1.642-5.391h-0.391c-1.042,1.615-2.488,3.008-4.336,4.18
			c-1.852,1.172-4.232,1.758-7.148,1.758c-1.824,0-3.464-0.271-4.922-0.82c-1.459-0.547-2.709-1.328-3.75-2.344
			c-1.042-1.016-1.85-2.213-2.422-3.594c-0.574-1.379-0.859-2.93-0.859-4.648c0-2.395,0.533-4.414,1.604-6.055
			c1.065-1.641,2.604-2.969,4.607-3.984c2.005-1.016,4.4-1.717,7.188-2.107c2.786-0.391,5.896-0.508,9.336-0.352
			c0.364-2.916,0.156-5.012-0.625-6.289c-0.781-1.275-2.527-1.914-5.234-1.914c-2.029,0-4.18,0.209-6.443,0.625
			c-2.268,0.418-4.129,0.965-5.586,1.641L353.433,97.59z M366.324,126.652c2.031,0,3.645-0.455,4.844-1.367
			c1.197-0.91,2.083-1.887,2.656-2.93v-5.078c-1.615-0.156-3.164-0.184-4.648-0.078c-1.482,0.105-2.8,0.34-3.945,0.703
			c-1.146,0.365-2.058,0.887-2.732,1.563c-0.678,0.678-1.018,1.537-1.018,2.578c0,1.459,0.432,2.592,1.289,3.398
			C363.628,126.25,364.813,126.652,366.324,126.652z"/>
		<path fill="#010101" d="M420.698,95.324l7.107,20l1.406,6.484h0.313l1.094-6.563l5-19.922h9.297l-12.031,39.452h-7.5
			l-7.891-21.875l-1.018-4.922h-0.391l-0.938,5l-7.5,21.795h-7.734l-12.578-39.451h11.016l5.703,19.607l0.938,6.953h0.391
			l1.328-7.031l6.484-19.529L420.698,95.324L420.698,95.324z"/>
		<path fill="#010101" d="M448.51,97.59c2.082-0.938,4.559-1.68,7.422-2.227c2.863-0.547,5.859-0.82,8.984-0.82
			c2.707,0,4.973,0.326,6.797,0.977c1.822,0.652,3.27,1.576,4.336,2.773c1.066,1.199,1.822,2.631,2.268,4.297
			c0.439,1.668,0.662,3.543,0.662,5.625c0,2.293-0.076,4.598-0.232,6.914c-0.156,2.318-0.248,4.598-0.273,6.836
			c-0.025,2.24,0.039,4.414,0.195,6.523s0.547,4.102,1.172,5.977h-8.281l-1.641-5.391h-0.391c-1.043,1.615-2.488,3.008-4.336,4.18
			c-1.852,1.172-4.232,1.758-7.148,1.758c-1.824,0-3.465-0.271-4.922-0.82c-1.459-0.547-2.709-1.328-3.75-2.344
			c-1.043-1.016-1.852-2.213-2.422-3.594c-0.574-1.379-0.859-2.93-0.859-4.648c0-2.395,0.533-4.414,1.604-6.055
			c1.064-1.641,2.604-2.969,4.607-3.984s4.4-1.717,7.188-2.107c2.785-0.391,5.896-0.508,9.336-0.352
			c0.362-2.916,0.155-5.012-0.625-6.289c-0.781-1.275-2.527-1.914-5.234-1.914c-2.031,0-4.18,0.209-6.444,0.625
			c-2.267,0.418-4.13,0.965-5.587,1.641L448.51,97.59z M461.4,126.652c2.029,0,3.645-0.455,4.844-1.367
			c1.197-0.91,2.082-1.887,2.656-2.93v-5.078c-1.615-0.156-3.164-0.184-4.648-0.078s-2.801,0.34-3.945,0.703
			c-1.146,0.365-2.059,0.887-2.732,1.563c-0.68,0.678-1.018,1.537-1.018,2.578c0,1.459,0.432,2.592,1.289,3.398
			C458.705,126.25,459.889,126.652,461.4,126.652z"/>
	</g>
	<g enable-background="new    ">
		<path fill="#010101" d="M498.111,134.387h-11.063V75.793h11.063V134.387z"/>
	</g>
	<g>
		<g enable-background="new    ">
			<path fill="#010101" d="M556.063,111.496h-20v22.891H525.36V79.699h10.702v22.266h20V79.699h10.702v54.688h-10.702V111.496
				L556.063,111.496z"/>
			<path fill="#010101" d="M574.109,114.855c0-6.613,1.611-11.707,4.844-15.273c3.229-3.566,7.76-5.352,13.594-5.352
				c3.125,0,5.832,0.496,8.125,1.484c2.291,0.99,4.191,2.383,5.703,4.18c1.51,1.797,2.643,3.973,3.398,6.523
				c0.754,2.553,1.133,5.365,1.133,8.438c0,6.615-1.604,11.707-4.807,15.271c-3.201,3.566-7.723,5.354-13.555,5.354
				c-3.125,0-5.834-0.496-8.125-1.484c-2.293-0.988-4.207-2.383-5.742-4.18c-1.537-1.797-2.684-3.971-3.438-6.523
				C574.486,120.742,574.109,117.93,574.109,114.855z M584.578,114.855c0,1.719,0.156,3.309,0.469,4.766
				c0.313,1.459,0.781,2.734,1.406,3.828s1.445,1.941,2.461,2.539c1.016,0.6,2.227,0.896,3.633,0.896
				c2.656,0,4.635-0.963,5.938-2.891c1.301-1.928,1.952-4.975,1.952-9.143c0-3.594-0.601-6.496-1.798-8.709
				c-1.197-2.213-3.229-3.32-6.094-3.32c-2.5,0-4.453,0.938-5.858,2.813C585.282,107.511,584.578,110.586,584.578,114.855z"/>
			<path fill="#010101" d="M634.108,123.605c0-1.041-0.443-1.875-1.328-2.5c-0.888-0.625-1.979-1.197-3.281-1.721
				c-1.303-0.52-2.734-1.055-4.297-1.602c-1.563-0.549-2.995-1.303-4.297-2.268c-1.305-0.963-2.396-2.188-3.281-3.67
				c-0.886-1.484-1.328-3.398-1.328-5.742c0-3.854,1.146-6.797,3.438-8.828c2.291-2.031,5.599-3.047,9.922-3.047
				c2.969,0,5.648,0.313,8.047,0.938c2.396,0.625,4.271,1.328,5.625,2.109l-2.268,7.344c-1.196-0.469-2.709-0.963-4.529-1.484
				c-1.823-0.52-3.672-0.781-5.547-0.781c-3.021,0-4.531,1.172-4.531,3.516c0,0.938,0.44,1.693,1.328,2.266
				c0.885,0.574,1.979,1.107,3.279,1.603c1.304,0.496,2.734,1.029,4.299,1.602c1.563,0.574,2.992,1.316,4.297,2.229
				c1.302,0.912,2.396,2.098,3.279,3.555c0.887,1.459,1.328,3.334,1.328,5.625c0,3.959-1.264,7.07-3.789,9.336
				c-2.524,2.266-6.313,3.398-11.365,3.398c-2.763,0-5.354-0.354-7.773-1.057c-2.421-0.701-4.389-1.521-5.898-2.461l2.813-7.576
				c1.197,0.678,2.786,1.342,4.766,1.99c1.979,0.652,4.011,0.979,6.095,0.979c1.511,0,2.722-0.285,3.634-0.859
				C633.652,125.924,634.108,124.961,634.108,123.605z"/>
			<path fill="#010101" d="M650.905,95.324h7.422l1.172,4.688h0.313c1.354-1.979,2.953-3.438,4.805-4.375
				c1.849-0.938,4.102-1.406,6.758-1.406c4.896,0,8.567,1.551,11.016,4.648c2.447,3.1,3.672,8.086,3.672,14.961
				c0,3.334-0.391,6.342-1.172,9.023c-0.779,2.684-1.938,4.961-3.477,6.836s-3.412,3.309-5.625,4.297
				c-2.214,0.988-4.753,1.484-7.617,1.484c-1.615,0-2.943-0.117-3.984-0.354c-1.041-0.232-2.084-0.611-3.125-1.133v16.016h-10.154
				V95.324H650.905z M668.327,102.824c-1.979,0-3.529,0.496-4.648,1.484c-1.12,0.99-1.991,2.475-2.616,4.453v16.25
				c0.729,0.574,1.522,1.029,2.384,1.367c0.857,0.34,1.991,0.508,3.396,0.508c2.916,0,5.104-1.026,6.563-3.086
				c1.458-2.057,2.188-5.455,2.188-10.194c0-3.438-0.572-6.095-1.719-7.97C672.729,103.762,670.879,102.824,668.327,102.824z"/>
			<path fill="#010101" d="M692.467,84.309c0-1.51,0.562-2.799,1.68-3.867c1.119-1.066,2.671-1.602,4.648-1.602
				c1.979,0,3.58,0.535,4.805,1.602c1.226,1.068,1.836,2.357,1.836,3.867c0,1.512-0.61,2.773-1.836,3.789
				c-1.225,1.016-2.824,1.523-4.805,1.523c-1.979,0-3.529-0.508-4.648-1.523C693.026,87.082,692.467,85.82,692.467,84.309z
				 M693.951,95.324h10.156v39.063h-10.156V95.324z"/>
			<path fill="#010101" d="M710.045,95.324h5.391V87.98l10.156-2.891v10.234h9.531v8.594h-9.531v15c0,2.709,0.273,4.647,0.82,5.819
				c0.547,1.173,1.574,1.759,3.086,1.759c1.041,0,1.939-0.104,2.695-0.313c0.754-0.207,1.602-0.52,2.539-0.938l1.797,7.813
				c-1.406,0.678-3.047,1.25-4.922,1.719c-1.875,0.471-3.777,0.703-5.703,0.703c-3.596,0-6.238-0.926-7.932-2.771
				c-1.691-1.85-2.539-4.883-2.539-9.104v-19.688h-5.391L710.045,95.324L710.045,95.324z"/>
			<path fill="#010101" d="M741.139,97.59c2.082-0.938,4.559-1.68,7.422-2.227c2.863-0.547,5.859-0.82,8.984-0.82
				c2.707,0,4.973,0.326,6.797,0.977c1.822,0.652,3.27,1.576,4.336,2.773c1.066,1.199,1.822,2.631,2.268,4.297
				c0.439,1.668,0.664,3.543,0.664,5.625c0,2.293-0.078,4.598-0.234,6.914c-0.156,2.318-0.248,4.598-0.273,6.836
				c-0.025,2.24,0.039,4.414,0.195,6.523s0.547,4.102,1.172,5.977h-8.281l-1.641-5.391h-0.391c-1.043,1.615-2.488,3.008-4.336,4.18
				c-1.852,1.172-4.232,1.758-7.148,1.758c-1.824,0-3.465-0.271-4.922-0.82c-1.459-0.547-2.709-1.328-3.75-2.344
				c-1.043-1.016-1.85-2.213-2.422-3.594c-0.574-1.379-0.859-2.93-0.859-4.648c0-2.395,0.533-4.414,1.604-6.055
				c1.064-1.641,2.604-2.969,4.607-3.984s4.4-1.717,7.188-2.107c2.785-0.391,5.896-0.508,9.336-0.352
				c0.363-2.916,0.156-5.012-0.625-6.289c-0.781-1.275-2.527-1.914-5.234-1.914c-2.03,0-4.18,0.209-6.444,0.625
				c-2.267,0.418-4.13,0.965-5.586,1.641L741.139,97.59z M754.029,126.652c2.029,0,3.645-0.455,4.844-1.367
				c1.197-0.91,2.082-1.887,2.656-2.93v-5.078c-1.615-0.156-3.164-0.184-4.648-0.078s-2.801,0.34-3.945,0.703
				c-1.146,0.365-2.059,0.887-2.732,1.563c-0.678,0.678-1.018,1.537-1.018,2.578c0,1.459,0.432,2.592,1.289,3.398
				C751.334,126.25,752.518,126.652,754.029,126.652z"/>
		</g>
		<g enable-background="new    ">
			<path fill="#010101" d="M791.164,134.387h-11.063V75.793h11.063V134.387z"/>
		</g>
	</g>
	<g>
		<path fill="#8EC740" d="M141.296,194.989c-15.104,15.101-39.818,15.101-54.922-0.005l-52.056-52.053
			c-15.104-15.104-15.104-39.823,0-54.926l52.056-52.061c15.104-15.104,39.818-15.104,54.922,0l52.063,52.061
			c15.104,15.104,15.104,39.818,0,54.924L141.296,194.989z"/>
		<path fill="#FFFFFF" d="M161.997,79.299c-7.61-14.571-10.357-17.071-18.95-25.271c-8.562-8.174-19.029-5.994-19.345,5.346
			c-0.152,5.262-1.312,8.843-3.199,10.484c-1.893,1.641-3.581,1.54-3.581,1.54V34.213h-2.983v32.414l-0.102,2.021l-0.098-2.021
			V34.213h-2.98v37.185c0,0-1.691,0.101-3.581-1.54c-1.89-1.642-3.053-5.223-3.201-10.484c-0.319-11.34-10.78-13.521-19.349-5.346
			c-8.593,8.2-11.336,10.7-18.95,25.271c-7.617,14.566-12.389,27.69-12.389,46.979c0,19.291,1.998,19.525,2.75,21.481
			c1.988,5.169,18.726,3.175,24.693-5.376l21.874-14.513l11.254-4.574l11.216,4.574l21.874,14.513
			c5.964,8.551,22.698,10.545,24.683,5.376c0.755-1.956,2.756-2.19,2.756-21.481C174.389,106.989,169.614,93.865,161.997,79.299z"/>
		<g>
			<path fill="#182242" d="M135.866,158.434c-1.548-0.209-3.097-0.375-4.639-0.58c-1.862-0.25-3.708-0.58-5.401-1.437
				c-1.485-0.763-1.754-1.554-1.056-3.048c0.417-0.885,0.939-1.732,1.343-2.637c1.059-2.412,1.593-4.916,1.015-7.553
				c-0.234-1.039-0.749-1.924-1.817-2.248c-1.767-0.55-3.479-0.406-4.785,1.021c-0.806,0.861-1.45,1.9-2.02,2.951
				c-1.305,2.404-2.759,4.701-4.554,6.802c-2.797,3.247-6.299,5.104-10.613,5.328c-1.084,0.062-2.165,0.011-3.429,0.011
				c0.654,0.621,1.188,1.119,1.726,1.637c0.755,0.729,1.558,1.422,2.25,2.221c1.119,1.269,1.694,2.785,1.609,4.49
				c-0.139,2.789-2.102,4.893-5.177,5.42c-3.647,0.631-7.063-0.184-10.262-1.953c-3.777-2.09-6.703-5.168-9.45-8.43
				c-1.501-1.771-2.67-3.74-3.455-5.94c-1.776-4.998-1.166-9.865,1.081-14.519c1.741-3.604,3.698-7.105,5.705-10.572
				c1.369-2.354,2.838-4.688,4.526-6.814c2.743-3.48,6.4-5.391,10.897-5.409c8.827-0.022,17.654-0.046,26.488,0
				c3.884,0.019,7.228,1.498,10.06,4.151c1.953,1.82,3.559,3.919,4.788,6.266c2.405,4.637,4.778,9.291,7.044,14.004
				c2,4.146,3.515,8.485,3.777,13.122c0.427,7.321-2.222,13.298-8.233,17.601c-4.479,3.201-9.551,5.095-14.886,6.273
				c-3.796,0.834-7.601,1.068-11.435,0.311c-2.769-0.563-5.37-1.564-7.329-3.691c-2.841-3.115-3.132-7.707,1.637-10.396
				c1.485-0.84,3.125-1.056,4.794-1.119c3.138-0.127,6.286-0.162,9.405-0.415c3.262-0.269,6.333-1.317,9.317-2.634
				c0.873-0.391,1.678-0.896,2.2-1.934C136.546,158.598,136.211,158.48,135.866,158.434z M101.43,132.289
				c-6.125-0.006-11.103,4.982-11.109,11.148c-0.01,6.232,4.908,11.178,11.122,11.188c6.21,0.011,11.188-4.934,11.204-11.127
				C112.666,137.293,107.666,132.295,101.43,132.289z"/>
			<path fill="#182242" d="M114.388,112.892c7.055,0.18,15.537-6.365,15.872-15.744c0.329-9.285-7.275-16.831-15.758-17.041
				c-9.181-0.223-16.823,6.854-17.044,15.815C97.224,105.358,104.467,112.626,114.388,112.892z"/>
		</g>
	</g>
</g>
</svg>
